<svg width="40" height="29" viewBox="0 0 40 29" fill="none" xmlns="http://www.w3.org/2000/svg">
<path d="M2.22222 3.22222C1.59259 3.22222 1.06519 3.06756 0.64 2.75822C0.213334 2.44996 0 2.06759 0 1.61111C0 1.15463 0.213334 0.771722 0.64 0.462389C1.06519 0.15413 1.59259 0 2.22222 0H37.7778C38.4074 0 38.9348 0.15413 39.36 0.462389C39.7867 0.771722 40 1.15463 40 1.61111C40 2.06759 39.7867 2.44996 39.36 2.75822C38.9348 3.06756 38.4074 3.22222 37.7778 3.22222H2.22222ZM2.22222 29C1.59259 29 1.06519 28.8453 0.64 28.536C0.213334 28.2277 0 27.8454 0 27.3889C0 26.9324 0.213334 26.55 0.64 26.2418C1.06519 25.9324 1.59259 25.7778 2.22222 25.7778H37.7778C38.4074 25.7778 38.9348 25.9324 39.36 26.2418C39.7867 26.55 40 26.9324 40 27.3889C40 27.8454 39.7867 28.2277 39.36 28.536C38.9348 28.8453 38.4074 29 37.7778 29H2.22222ZM2.22222 16.1111C1.59259 16.1111 1.06519 15.9564 0.64 15.6471C0.213334 15.3389 0 14.9565 0 14.5C0 14.0435 0.213334 13.6606 0.64 13.3513C1.06519 13.043 1.59259 12.8889 2.22222 12.8889H37.7778C38.4074 12.8889 38.9348 13.043 39.36 13.3513C39.7867 13.6606 40 14.0435 40 14.5C40 14.9565 39.7867 15.3389 39.36 15.6471C38.9348 15.9564 38.4074 16.1111 37.7778 16.1111H2.22222Z" fill="white"/>
</svg>
